<?xml version="1.0" encoding="UTF-8"?>
<svg xmlns="http://www.w3.org/2000/svg" width="64" height="64" viewBox="0 0 64 64" role="img" aria-label="Budget App">
  <defs>
    <linearGradient id="g" x1="12" y1="10" x2="54" y2="58" gradientUnits="userSpaceOnUse">
      <stop offset="0" stop-color="#22c55e"/>
      <stop offset="1" stop-color="#0ea5e9"/>
    </linearGradient>
    <filter id="shadow" x="-20%" y="-20%" width="140%" height="140%">
      <feDropShadow dx="0" dy="2" stdDeviation="2" flood-color="#0b1220" flood-opacity="0.28"/>
    </filter>
  </defs>

  <!-- rounded square background -->
  <rect x="6" y="6" width="52" height="52" rx="14" fill="url(#g)" filter="url(#shadow)"/>

  <!-- subtle highlight -->
  <path d="M20 14h24a12 12 0 0 1 12 12v1c-6-7-15-11-26-11H14c2-1.3 3.8-2 6-2Z" fill="#ffffff" opacity="0.18"/>

  <!-- coin -->
  <circle cx="26" cy="34" r="10.5" fill="#0b1220" opacity="0.14"/>
  <circle cx="26" cy="33" r="10.5" fill="#ffffff" opacity="0.94"/>
  <circle cx="26" cy="33" r="8" fill="none" stroke="#0b1220" stroke-opacity="0.12" stroke-width="2"/>

  <!-- currency mark -->
  <path d="M26 25.2v15.6" stroke="#0b1220" stroke-opacity="0.7" stroke-width="2.3" stroke-linecap="round"/>
  <path d="M29.8 28.4c0-1.9-1.8-3.4-4-3.4s-4 1.5-4 3.4c0 4.1 8 2.2 8 6.3 0 1.9-1.8 3.4-4 3.4s-4-1.5-4-3.4" fill="none" stroke="#0b1220" stroke-opacity="0.7" stroke-width="2.3" stroke-linecap="round"/>

  <!-- growth line -->
  <path d="M34.5 40.5l6.6-6.2 4.1 4.2 6.3-8.3" fill="none" stroke="#ffffff" stroke-width="3" stroke-linecap="round" stroke-linejoin="round"/>
  <path d="M52.5 29.9h-5.7" stroke="#ffffff" stroke-width="3" stroke-linecap="round"/>
</svg>
